HIERARCHY
ROOT SpineBase
{
  OFFSET 0.000000 0.000000 0.000000
  CHANNELS 6 Xposition Yposition Zposition Zrotation Xrotation Yrotation
  JOINT SpineMid
  {
    OFFSET 0.000000 25.412558 0.000000
    CHANNELS 3 Zrotation Xrotation Yrotation
    JOINT SpineShoulder
    {
      OFFSET -0.125846 18.936278 -0.707389
      CHANNELS 3 Zrotation Xrotation Yrotation
      JOINT Neck
      {
        OFFSET -0.066958 6.287061 -0.522707
        CHANNELS 3 Zrotation Xrotation Yrotation
        JOINT Head
        {
          OFFSET -2.869511 11.993664 0.960638
          CHANNELS 3 Zrotation Xrotation Yrotation
          End Site
          {
            OFFSET 0 0 0
          }
        }
      }
      JOINT ShoulderLeft
      {
        OFFSET -13.273166 -2.457780 5.822169
        CHANNELS 3 Zrotation Xrotation Yrotation
        JOINT ElbowLeft
        {
          OFFSET -8.374301 -22.440477 -15.188582
          CHANNELS 3 Zrotation Xrotation Yrotation
          JOINT WristLeft
          {
            OFFSET 12.100321 11.580566 -15.518325
            CHANNELS 3 Zrotation Xrotation Yrotation
            JOINT HandLeft
            {
              OFFSET 2.480542 -0.722779 -0.104378
              CHANNELS 3 Zrotation Xrotation Yrotation
              JOINT HandTipLeft
              {
                OFFSET 3.009475 1.320370 -2.589656
                CHANNELS 3 Zrotation Xrotation Yrotation
                End Site
                {
                  OFFSET 0 0 0
                }
              }
              JOINT ThumbLeft
              {
                OFFSET 0.011968 -2.980118 -2.099625
                CHANNELS 3 Zrotation Xrotation Yrotation
                End Site
                {
                  OFFSET 0 0 0
                }
              }
            }
          }
        }
      }
      JOINT ShoulderRight
      {
        OFFSET 11.368138 -0.497316 -6.126841
        CHANNELS 3 Zrotation Xrotation Yrotation
        JOINT ElbowRight
        {
          OFFSET 5.567599 -21.467496 -7.454521
          CHANNELS 3 Zrotation Xrotation Yrotation
          JOINT WristRight
          {
            OFFSET -18.583274 8.482492 -6.123501
            CHANNELS 3 Zrotation Xrotation Yrotation
            JOINT HandRight
            {
              OFFSET -4.693168 0.010918 -5.557594
              CHANNELS 3 Zrotation Xrotation Yrotation
              JOINT HandTipRight
              {
                OFFSET -3.070662 1.249545 0.015778
                CHANNELS 3 Zrotation Xrotation Yrotation
                End Site
                {
                  OFFSET 0 0 0
                }
              }
              JOINT ThumbRight
              {
                OFFSET -0.590292 3.465694 -0.106240
                CHANNELS 3 Zrotation Xrotation Yrotation
                End Site
                {
                  OFFSET 0 0 0
                }
              }
            }
          }
        }
      }
    }
  }
  JOINT HipLeft
  {
    OFFSET -5.689189 0.198941 -1.008164
    CHANNELS 3 Zrotation Xrotation Yrotation
    JOINT KneeLeft
    {
      OFFSET 4.301072 -34.187880 3.239977
      CHANNELS 3 Zrotation Xrotation Yrotation
      JOINT AnkleLeft
      {
        OFFSET 5.823760 -32.408784 6.167615
        CHANNELS 3 Zrotation Xrotation Yrotation
        JOINT FootLeft
        {
          OFFSET -1.212743 -3.210711 -7.385053
          CHANNELS 3 Zrotation Xrotation Yrotation
          End Site
          {
            OFFSET 0 0 0
          }
        }
      }
    }
  }
  JOINT HipRight
  {
    OFFSET 5.239606 1.205914 -5.107300
    CHANNELS 3 Zrotation Xrotation Yrotation
    JOINT KneeRight
    {
      OFFSET 5.208648 -32.820505 0.692682
      CHANNELS 3 Zrotation Xrotation Yrotation
      JOINT AnkleRight
      {
        OFFSET 1.450332 -34.082225 7.242392
        CHANNELS 3 Zrotation Xrotation Yrotation
        JOINT FootRight
        {
          OFFSET -3.199121 -2.215751 -9.226171
          CHANNELS 3 Zrotation Xrotation Yrotation
          End Site
          {
            OFFSET 0 0 0
          }
        }
      }
    }
  }
}
MOTION
Frames: 5
Frame Time: 0.033333
24.615193 72.063712 365.623782 -0.000000 0.000000 20.559899 -0.000000 0.000000 -20.559899 -0.000000 0.000000 0.000000 -0.000000 0.000000 0.000000 0.000000 0.000000 0.000000 -0.000000 0.000000 0.000000 -0.000000 0.000000 0.000000 -0.000000 0.000000 0.000000 -0.000000 0.000000 0.000000 0.000000 0.000000 0.000000 0.000000 0.000000 0.000000 -0.000000 0.000000 0.000000 -0.000000 0.000000 0.000000 -0.000000 0.000000 0.000000 -0.000000 0.000000 0.000000 0.000000 0.000000 0.000000 0.000000 0.000000 0.000000 -0.000000 0.000000 -20.559899 -0.000000 0.000000 0.000000 -0.000000 0.000000 0.000000 0.000000 0.000000 0.000000 -0.000000 0.000000 -20.559899 -0.000000 0.000000 0.000000 -0.000000 0.000000 0.000000 0.000000 0.000000 0.000000
24.582775 72.040899 365.608919 -0.011422 -0.031108 20.633173 0.021651 0.025088 -20.633180 -0.000000 0.000000 0.000000 -0.000000 0.000000 0.000000 0.000000 0.000000 0.000000 -0.198987 1.085705 -0.266722 -1.819563 -1.512800 -1.998772 -6.881426 0.060965 3.600546 9.986985 0.284850 -0.164460 0.000000 0.000000 0.000000 0.000000 0.000000 0.000000 -0.000000 0.000000 0.000000 1.665851 -2.202513 -3.433072 -4.236649 4.418727 9.230919 -0.346393 -3.497717 -8.353343 0.000000 0.000000 0.000000 0.000000 0.000000 0.000000 0.021651 0.025088 -20.633180 -0.000000 0.000000 0.000000 1.202347 -1.219196 -2.359093 0.000000 0.000000 0.000000 0.021651 0.025088 -20.633180 -0.000000 0.000000 0.000000 -0.000000 0.000000 0.000000 0.000000 0.000000 0.000000
24.553600 72.021610 365.597008 -0.024537 -0.057055 20.697857 0.043119 0.044700 -20.697886 -0.000000 0.000000 0.000000 -0.000000 0.000000 0.000000 0.000000 0.000000 0.000000 -0.353298 1.996616 -0.493495 -3.414528 -2.818855 -3.717676 -28.418664 -2.528168 13.544517 34.628903 -3.297826 -6.316523 0.000000 0.000000 0.000000 0.000000 0.000000 0.000000 0.173999 -1.001994 -0.319617 2.709916 -2.947590 -5.754997 -8.783666 7.869390 18.351158 -1.465606 -6.683076 -17.461132 0.000000 0.000000 0.000000 0.000000 0.000000 0.000000 0.043119 0.044700 -20.697886 -0.000000 0.000000 0.000000 2.445012 -2.824722 -4.805888 0.000000 0.000000 0.000000 0.043119 0.044700 -20.697886 -0.000000 0.000000 0.000000 -0.000000 0.000000 0.000000 0.000000 0.000000 0.000000
24.527671 72.005844 365.588048 -0.039344 -0.077848 20.753907 0.064377 0.058854 -20.753967 -0.000000 0.000000 0.000000 -0.000000 0.000000 0.000000 0.000000 0.000000 0.000000 -0.463621 2.725812 -0.680582 -4.809555 -3.937467 -5.155785 -86.822781 -34.280543 42.901601 99.450841 -42.355903 -18.973312 0.000000 0.000000 0.000000 0.000000 0.000000 0.000000 0.312619 -1.088935 -0.389016 3.411118 -4.149788 -7.533525 -13.146115 10.236505 26.658438 -3.179675 -9.017570 -26.390278 0.000000 0.000000 0.000000 0.000000 0.000000 0.000000 0.064377 0.058854 -20.753967 -0.000000 0.000000 0.000000 3.694512 -4.826123 -7.309805 0.000000 0.000000 0.000000 0.064377 0.058854 -20.753967 0.966915 -0.042494 0.203933 -0.966758 0.045929 -0.203187 0.000000 0.000000 0.000000
24.504986 71.993600 365.582041 -0.055842 -0.093495 20.801285 0.085404 0.067569 -20.801381 -0.000000 0.000000 0.000000 -0.000000 0.000000 0.000000 0.000000 0.000000 0.000000 -0.530609 3.267917 -0.828137 -6.026164 -4.886354 -6.313376 -61.668090 -55.994472 104.135912 37.375017 -84.814045 -99.330860 0.000000 0.000000 0.000000 0.000000 0.000000 0.000000 0.485479 -0.888964 -0.396004 3.767339 -5.176700 -8.648992 -16.719361 11.602138 33.284271 -5.045238 -10.245080 -33.912654 0.000000 0.000000 0.000000 0.000000 0.000000 0.000000 0.085404 0.067569 -20.801381 0.360894 -0.858182 -0.082667 4.553945 -6.356347 -9.820539 0.000000 0.000000 0.000000 0.085404 0.067569 -20.801381 1.160888 -0.074664 0.244134 -1.160560 0.079594 -0.242572 0.000000 0.000000 0.000000
